<svg width="128" height="136" viewBox="0 0 128 136" fill="none" xmlns="http://www.w3.org/2000/svg">
<g clip-path="url(#clip0_1_2)">
<rect width="128" height="136" fill="white"/>
<path d="M115.805 76.1038L38.119 129.323C35.9635 130.8 33.837 127.849 35.5429 125.749L69.2963 84.1859C70.4073 82.8184 69.9114 80.7135 68.3813 80.3009L24.169 68.3794C22.3481 67.8884 22.1044 65.1399 23.7816 64.0085L95.5767 15.5918C97.6592 14.187 99.7584 16.9144 98.2364 19.0476L71.1618 56.9823C70.1656 58.3784 70.7139 60.3679 72.1998 60.746L115.378 71.7365C117.211 72.2032 117.48 74.9568 115.805 76.1038Z" fill="#7CDEFF"/>
<path d="M43.8698 28.8785C50.848 28.9782 57.1284 30.4735 62.7109 33.3645L60.0193 46.0748L58.8231 46.5234C54.1377 43.134 48.9041 41.4392 43.1221 41.4392C31.2592 41.4392 25.3277 49.2648 25.3277 64.9159C25.3277 81.7632 31.4087 90.2368 43.5707 90.3364C49.552 90.3364 55.0848 88.6916 60.1689 85.4019L61.5147 86.1495L60.3184 99.0093C54.6362 101.601 48.6549 102.947 42.3745 103.047C31.6081 103.047 23.3838 99.9065 17.7016 93.6262C12.119 87.3458 9.32775 78.2741 9.32775 66.4112C9.32775 54.5483 12.3184 45.3271 18.2997 38.7477C24.281 32.1682 32.8044 28.8785 43.8698 28.8785ZM101.682 28.8785C108.66 28.9782 114.941 30.4735 120.523 33.3645L117.832 46.0748L116.636 46.5234C111.95 43.134 106.717 41.4392 100.935 41.4392C89.0717 41.4392 83.1402 49.2648 83.1402 64.9159C83.1402 81.7632 89.2212 90.2368 101.383 90.3364C107.365 90.3364 112.897 88.6916 117.981 85.4019L119.327 86.1495L118.131 99.0093C112.449 101.601 106.467 102.947 100.187 103.047C89.4206 103.047 81.1963 99.9065 75.5141 93.6262C69.9315 87.3458 67.1402 78.2741 67.1402 66.4112C67.1402 54.5483 70.1309 45.3271 76.1122 38.7477C82.0935 32.1682 90.6169 28.8785 101.682 28.8785Z" fill="#134074"/>
</g>
<defs>
<clipPath id="clip0_1_2">
<rect width="128" height="136" fill="white"/>
</clipPath>
</defs>
</svg>
