<svg width="60" height="60" viewBox="0 0 60 60" fill="none" xmlns="http://www.w3.org/2000/svg">
<g clip-path="url(#clip0_5_40)">
<path d="M30 55C43.8071 55 55 43.8071 55 30C55 16.1929 43.8071 5 30 5C16.1929 5 5 16.1929 5 30C5 43.8071 16.1929 55 30 55Z" fill="white"/>
<path d="M32.9825 54.8225V37.8975H38.8775L39.7625 31.23H32.9825V26.98C32.9825 25.0325 33.56 23.73 36.3725 23.73H40V17.765C38.2451 17.5832 36.4818 17.4948 34.7175 17.5C33.5363 17.4043 32.3484 17.5667 31.2362 17.9758C30.124 18.385 29.1141 19.0311 28.2765 19.8695C27.4389 20.7078 26.7936 21.7183 26.3854 22.8308C25.9772 23.9434 25.8158 25.1314 25.9125 26.3125V31.2275H20V37.895H25.9125V54.6675C19.6739 53.6356 14.058 50.278 10.1961 45.2709C6.33424 40.2638 4.51323 33.9793 5.09989 27.6832C5.68655 21.3871 8.6373 15.5472 13.3578 11.3398C18.0783 7.13238 24.2178 4.8701 30.5396 5.0086C36.8615 5.1471 42.896 7.67609 47.4277 12.0862C51.9594 16.4963 54.6516 22.4598 54.9619 28.7756C55.2723 35.0913 53.1778 41.2901 49.1003 46.1232C45.0228 50.9564 39.2653 54.0648 32.9875 54.8225H32.9825Z" fill="url(#paint0_linear_5_40)"/>
</g>
<defs>
<linearGradient id="paint0_linear_5_40" x1="29.992" y1="5.00259" x2="29.992" y2="54.3741" gradientUnits="userSpaceOnUse">
<stop stop-color="#4E69A2"/>
<stop offset="1" stop-color="#3B5998"/>
</linearGradient>
<clipPath id="clip0_5_40">
<rect width="60" height="60" fill="white"/>
</clipPath>
</defs>
</svg>
