<svg width="60" height="60" viewBox="0 0 60 60" fill="none" xmlns="http://www.w3.org/2000/svg">
<path d="M30 55C43.8071 55 55 43.8071 55 30C55 16.1929 43.8071 5 30 5C16.1929 5 5 16.1929 5 30C5 43.8071 16.1929 55 30 55Z" fill="white"/>
<path d="M30 55C43.8071 55 55 43.8071 55 30C55 16.1929 43.8071 5 30 5C16.1929 5 5 16.1929 5 30C5 43.8071 16.1929 55 30 55Z" fill="#0077B5"/>
<path fill-rule="evenodd" clip-rule="evenodd" d="M23.4684 17.8549C23.4684 19.4113 22.2834 20.6708 20.4303 20.6708C18.6493 20.6708 17.4641 19.4113 17.5009 17.8549C17.4641 16.2229 18.6491 15 20.4658 15C22.2834 15 23.4329 16.2229 23.4684 17.8549ZM17.6499 41.0239V22.8953H23.2839V41.0226L17.6499 41.0239Z" fill="white"/>
<path fill-rule="evenodd" clip-rule="evenodd" d="M27.7991 28.6807C27.7991 26.4196 27.7246 24.4919 27.6501 22.8977H32.5439L32.804 25.3812H32.9153C33.6568 24.2317 35.5099 22.4909 38.5126 22.4909C42.219 22.4909 44.9994 24.9377 44.9994 30.2737V41.0262H39.3653V30.9797C39.3653 28.643 38.5505 27.0499 36.5116 27.0499C34.9541 27.0499 34.028 28.1249 33.6579 29.1621C33.5089 29.5335 33.4355 30.0515 33.4355 30.5717V41.0262H27.8014V28.6807H27.7991Z" fill="white"/>
</svg>
