<svg width="60" height="60" viewBox="0 0 60 60" fill="none" xmlns="http://www.w3.org/2000/svg">
<path d="M30 55C43.8071 55 55 43.8071 55 30C55 16.1929 43.8071 5 30 5C16.1929 5 5 16.1929 5 30C5 43.8071 16.1929 55 30 55Z" fill="white"/>
<path d="M30 55C43.8071 55 55 43.8071 55 30C55 16.1929 43.8071 5 30 5C16.1929 5 5 16.1929 5 30C5 43.8071 16.1929 55 30 55Z" fill="#1DA1F2"/>
<path fill-rule="evenodd" clip-rule="evenodd" d="M45 20.3857C43.8971 20.8757 42.7101 21.2057 41.4652 21.3547C42.7361 20.5927 43.7121 19.3869 44.171 17.95C42.9831 18.6559 41.6643 19.1669 40.2634 19.4439C39.1404 18.248 37.5395 17.5 35.7706 17.5C32.3719 17.5 29.616 20.2559 29.616 23.6546C29.616 24.1365 29.671 24.6065 29.776 25.0575C24.6604 24.8015 20.1256 22.3506 17.0899 18.6269C16.5599 19.5359 16.2569 20.5928 16.2569 21.7208C16.2569 23.8556 17.3419 25.7395 18.9947 26.8434C17.9847 26.8114 17.0369 26.5344 16.2059 26.0734V26.1504C16.2059 29.1332 18.3288 31.62 21.1426 32.187C20.6266 32.327 20.0826 32.403 19.5218 32.403C19.1248 32.403 18.7387 32.364 18.3627 32.292C19.1457 34.7369 21.4196 36.5168 24.1124 36.5668C22.0065 38.2166 19.3528 39.2015 16.4689 39.2015C15.9709 39.2015 15.481 39.1725 15 39.1145C17.7239 40.8605 20.9586 41.8804 24.4344 41.8804C35.7546 41.8804 41.9452 32.502 41.9452 24.3695C41.9452 24.1025 41.9403 23.8366 41.9273 23.5736C43.1311 22.7036 44.175 21.6197 45 20.3857Z" fill="white"/>
</svg>
