<svg width="128" height="136" viewBox="0 0 128 136" fill="none" xmlns="http://www.w3.org/2000/svg">
<path d="M115.347 58.0542L49.4775 135.188C47.6499 137.328 44.611 134.856 45.796 132.193L69.2442 79.5021C70.0161 77.7682 68.9101 75.7182 67.2031 75.7182H17.8791C15.8476 75.7182 14.8235 72.9281 16.2504 71.2811L77.3401 0.794299C79.1119 -1.25068 82.06 0.997129 81.0753 3.64243L63.5556 50.6871C62.9111 52.4184 64.0392 54.3337 65.6905 54.3103L113.678 53.6319C115.716 53.6032 116.767 56.3916 115.347 58.0542Z" fill="#00A5CF"/>
<path d="M59.2878 40.28H51.2238V38.456C51.2238 37.496 51.1598 36.888 51.0317 36.632C50.9678 36.312 50.6478 35.928 50.0718 35.48C49.4958 35.032 49.0478 34.776 48.7278 34.712C48.4078 34.584 47.6718 34.52 46.5198 34.52H22.7118C21.5598 34.52 20.8238 34.584 20.5038 34.712C20.1838 34.776 19.7358 35.032 19.1598 35.48C18.5838 35.928 18.2318 36.312 18.1038 36.632C18.0398 36.888 18.0078 37.496 18.0078 38.456V84.344C18.0078 85.304 18.0398 85.944 18.1038 86.264C18.2318 86.52 18.5838 86.872 19.1598 87.32C19.7358 87.768 20.1838 88.056 20.5038 88.184C20.8238 88.248 21.5598 88.28 22.7118 88.28H46.5198C47.6718 88.28 48.4078 88.248 48.7278 88.184C49.0478 88.056 49.4958 87.768 50.0718 87.32C50.6478 86.872 50.9678 86.52 51.0317 86.264C51.1598 85.944 51.2238 85.304 51.2238 84.344V82.52H59.2878V86.36C59.2878 88.28 58.5198 89.88 56.9838 91.16L54.6798 93.08C53.1438 94.36 51.6078 95 50.0718 95H19.1598C17.6238 95 16.0878 94.36 14.5518 93.08L12.2478 91.16C10.7118 89.88 9.94375 88.28 9.94375 86.36V36.44C9.94375 34.52 10.7118 32.92 12.2478 31.64L14.5518 29.72C16.0878 28.44 17.6238 27.8 19.1598 27.8H50.0718C51.6078 27.8 53.1438 28.44 54.6798 29.72L56.9838 31.64C58.5198 32.92 59.2878 34.52 59.2878 36.44V40.28ZM122.944 40.28H114.88V38.456C114.88 37.496 114.816 36.888 114.688 36.632C114.624 36.312 114.304 35.928 113.728 35.48C113.152 35.032 112.704 34.776 112.384 34.712C112.064 34.584 111.328 34.52 110.176 34.52H86.368C85.216 34.52 84.48 34.584 84.16 34.712C83.84 34.776 83.392 35.032 82.816 35.48C82.24 35.928 81.888 36.312 81.76 36.632C81.696 36.888 81.664 37.496 81.664 38.456V84.344C81.664 85.304 81.696 85.944 81.76 86.264C81.888 86.52 82.24 86.872 82.816 87.32C83.392 87.768 83.84 88.056 84.16 88.184C84.48 88.248 85.216 88.28 86.368 88.28H110.176C111.328 88.28 112.064 88.248 112.384 88.184C112.704 88.056 113.152 87.768 113.728 87.32C114.304 86.872 114.624 86.52 114.688 86.264C114.816 85.944 114.88 85.304 114.88 84.344V82.52H122.944V86.36C122.944 88.28 122.176 89.88 120.64 91.16L118.336 93.08C116.8 94.36 115.264 95 113.728 95H82.816C81.28 95 79.744 94.36 78.208 93.08L75.904 91.16C74.368 89.88 73.6 88.28 73.6 86.36V36.44C73.6 34.52 74.368 32.92 75.904 31.64L78.208 29.72C79.744 28.44 81.28 27.8 82.816 27.8H113.728C115.264 27.8 116.8 28.44 118.336 29.72L120.64 31.64C122.176 32.92 122.944 34.52 122.944 36.44V40.28Z" fill="#004E64"/>
</svg>
